<?xml version="1.0" standalone="no"?>
<!DOCTYPE svg PUBLIC "-//W3C//DTD SVG 20010904//EN"
 "http://www.w3.org/TR/2001/REC-SVG-20010904/DTD/svg10.dtd">
<svg version="1.0" xmlns="http://www.w3.org/2000/svg"
 width="512.000000pt" height="512.000000pt" viewBox="0 0 512.000000 512.000000"
 preserveAspectRatio="xMidYMid meet">
<metadata>
Created by potrace 1.14, written by Peter Selinger 2001-2017
</metadata>
<g transform="translate(0.000000,512.000000) scale(0.100000,-0.100000)"
fill="#000000" stroke="none">
<path d="M1126 4454 c-89 -22 -193 -81 -273 -157 -81 -77 -121 -135 -167 -240
l-31 -72 -2 -1400 c-3 -1550 -8 -1440 63 -1585 28 -57 57 -95 124 -162 94 -93
157 -131 275 -167 l70 -21 1395 2 1395 3 75 29 c97 37 171 88 248 170 76 81
114 147 147 249 l25 78 0 1372 c0 1516 4 1419 -64 1563 -41 87 -150 206 -240
262 -33 21 -94 50 -134 65 l-73 27 -1387 -1 c-1161 -1 -1397 -3 -1446 -15z"/>
</g>
</svg>
