<?xml version="1.0" encoding="UTF-8" standalone="no"?>
<!DOCTYPE svg PUBLIC "-//W3C//DTD SVG 1.1//EN" "http://www.w3.org/Graphics/SVG/1.1/DTD/svg11.dtd">
<!-- 由 Microsoft Visio, SVG Export 產生 01-03p122-2.svg 圖層_1 -->
<svg xmlns="http://www.w3.org/2000/svg" xmlns:xlink="http://www.w3.org/1999/xlink" xmlns:ev="http://www.w3.org/2001/xml-events"
		xmlns:v="http://schemas.microsoft.com/visio/2003/SVGExtensions/" width="1.00339in" height="1.97634in"
		viewBox="0 0 72.2438 142.297" xml:space="preserve" color-interpolation-filters="sRGB" class="st10">
	<v:documentProperties v:langID="1028" v:viewMarkup="false"/>

	<style type="text/css">
	<![CDATA[
		.st1 {fill:none}
		.st2 {stroke:#000000;stroke-linecap:butt;stroke-width:0.21225}
		.st3 {stroke:#000000;stroke-dasharray:0.849,0.4245;stroke-linecap:butt;stroke-width:0.21225}
		.st4 {stroke:#000000;stroke-linecap:butt;stroke-width:0.53175}
		.st5 {stroke:#000000;stroke-linecap:butt;stroke-width:0.42525}
		.st6 {fill:none;stroke:none;stroke-linecap:round;stroke-linejoin:round;stroke-width:0.75}
		.st7 {fill:#000000;font-family:新細明體;font-size:0.625008em}
		.st8 {font-size:1em}
		.st9 {fill:#000000;font-family:新細明體;font-size:0.499992em}
		.st10 {fill:none;fill-rule:evenodd;font-size:12px;overflow:visible;stroke-linecap:square;stroke-miterlimit:3}
	]]>
	</style>

	<g v:mID="0" v:index="1" v:groupContext="foregroundPage">
		<title>圖層_1</title>
		<v:pageProperties v:drawingScale="1" v:pageScale="1" v:drawingUnits="19" v:shadowOffsetX="9" v:shadowOffsetY="-9"/>
		<v:layer v:name="連接器" v:index="0"/>
		<g id="shape1-1" v:mID="1" v:groupContext="shape" transform="translate(4.78425,-108)">
			<title>工作表.1</title>
			<path d="M0 142.3 L0 133.36 L62.72 133.36 L62.72 142.19 L0 142.3 Z" class="st1"/>
			<path d="M0 142.3 L0 133.36 L62.72 133.36 L62.72 142.19" class="st2"/>
		</g>
		<g id="shape2-4" v:mID="2" v:groupContext="shape" transform="translate(161.112,25.3612) rotate(90)">
			<title>工作表.2</title>
			<path d="M0 142.3 L8.74 142.3" class="st2"/>
		</g>
		<g id="shape3-7" v:mID="3" v:groupContext="shape" transform="translate(182.001,18.0202) rotate(90)">
			<title>工作表.3</title>
			<path d="M0 142.3 L16.28 142.3" class="st2"/>
		</g>
		<g id="shape4-10" v:mID="4" v:groupContext="shape" transform="translate(195.766,25.3612) rotate(90)">
			<title>工作表.4</title>
			<path d="M0 142.3 L8.94 142.3" class="st2"/>
		</g>
		<g id="shape23-13" v:mID="23" v:groupContext="shape" transform="translate(182.002,58.1033) rotate(90)">
			<title>工作表.23</title>
			<path d="M0 142.3 L59.99 142.3" class="st3"/>
		</g>
		<g id="shape24-16" v:mID="24" v:groupContext="shape" transform="translate(4.677,-23.7278)">
			<title>工作表.24</title>
		</g>
		<g id="shape29-17" v:mID="29" v:groupContext="shape" transform="translate(-117.101,44.4802) rotate(-59.5293)">
			<title>工作表.29</title>
			<path d="M0 142.3 L66.51 142.3" class="st3"/>
		</g>
		<g id="shape30-20" v:mID="30" v:groupContext="shape" transform="translate(168.93,-1.01203) rotate(64.7247)">
			<title>工作表.30</title>
			<path d="M0 142.3 L63.2 142.3" class="st3"/>
		</g>
		<g id="shape31-23" v:mID="31" v:groupContext="shape" transform="translate(4.89075,-24.5475)">
			<title>工作表.31</title>
			<path d="M62.53 141.83 L62.72 142.22 L62.53 141.83 ZM34.6 83.5 L34.81 83.13 L35 83.52 L34.6 83.5 ZM0 142.3 L0.22 141.93
						 L0 142.3 Z" class="st1"/>
			<path d="M62.53 141.83 L62.72 142.22M34.6 83.5 L34.81 83.13 L35 83.52M0 142.3 L0.22 141.93" class="st2"/>
		</g>
		<g id="shape32-26" v:mID="32" v:groupContext="shape" transform="translate(102.306,-45.0435) rotate(43.2465)">
			<title>工作表.32</title>
			<path d="M0 142.3 L86.21 142.3" class="st4"/>
		</g>
		<g id="shape33-29" v:mID="33" v:groupContext="shape" transform="translate(4.917,-24.495)">
			<title>工作表.33</title>
			<path d="M0 142.3 L13.98 83.22 L62.69 142.16 L0 142.3 Z" class="st1"/>
			<path d="M0 142.3 L13.98 83.22 L62.69 142.16" class="st2"/>
		</g>
		<g id="shape34-32" v:mID="34" v:groupContext="shape" transform="translate(153.158,11.6975) rotate(70.5978)">
			<title>工作表.34</title>
			<path d="M0 142.3 L62.2 142.3" class="st2"/>
		</g>
		<g id="shape35-35" v:mID="35" v:groupContext="shape" transform="translate(4.8135,-24.5475)">
			<title>工作表.35</title>
			<path d="M0 142.3 L48.55 83.28 L62.79 142.22 L0 142.3 Z" class="st1"/>
			<path d="M0 142.3 L48.55 83.28 L62.79 142.22" class="st5"/>
		</g>
		<g id="shape36-38" v:mID="36" v:groupContext="shape" transform="translate(-98.8845,85.9803) rotate(-77.0778)">
			<title>工作表.36</title>
			<path d="M0 142.3 L60.61 142.3" class="st5"/>
		</g>
		<g id="shape37-41" v:mID="37" v:groupContext="shape" transform="translate(4.88625,-24.7027)">
			<title>工作表.37</title>
			<path d="M0 142.3 L62.72 83.28 L62.72 142.3 L0 142.3 Z" class="st1"/>
			<path d="M0 142.3 L62.72 83.28 L62.72 142.3" class="st2"/>
		</g>
		<g id="shape38-44" v:mID="38" v:groupContext="shape" transform="translate(196.352,119.231) rotate(115.132)">
			<title>工作表.38</title>
			<path d="M0 142.3 L65.28 142.3" class="st2"/>
		</g>
		<g id="shape47-47" v:mID="47" v:groupContext="shape" transform="translate(4.92,-24.6007)">
			<title>工作表.47</title>
			<path d="M0 142.3 L0.1 83.62 L34.8 142.3 L0 142.3 Z" class="st1"/>
			<path d="M0 142.3 L0.1 83.62 L34.8 142.3" class="st4"/>
		</g>
		<g id="shape59-50" v:mID="59" v:groupContext="shape" transform="translate(35.234,-125.449)">
			<title>工作表.59</title>
			<desc>五戒</desc>
			<v:textBlock v:margins="rect(0,0,0,0)"/>
			<v:textRect cx="4.5" cy="134.422" width="9" height="15.75"/>
			<rect x="0" y="126.547" width="9" height="15.75" class="st6"/>
			<text x="0.75" y="132.55" class="st7" v:langID="1028"><v:paragraph v:spLine="-1" v:horizAlign="1"/><v:tabList/>五<tspan
						x="0.75" dy="1em" class="st8">戒</tspan></text>		</g>
		<g id="shape60-54" v:mID="60" v:groupContext="shape" transform="translate(63,-83.4176)">
			<title>工作表.60</title>
			<desc>不殺生</desc>
			<v:textBlock v:margins="rect(0,0,0,0)"/>
			<v:textRect cx="4.5" cy="129.922" width="9" height="24.75"/>
			<rect x="0" y="117.547" width="9" height="24.75" class="st6"/>
			<text x="0.75" y="124.3" class="st7" v:langID="1028"><v:paragraph v:spLine="-1" v:horizAlign="1"/><v:tabList/>不<tspan
						x="0.75" dy="1em" class="st8">殺</tspan><tspan x="0.75" dy="1em" class="st8">生</tspan></text>		</g>
		<g id="shape61-59" v:mID="61" v:groupContext="shape" transform="translate(48.9255,-83.4415)">
			<title>工作表.61</title>
			<desc>不偷盜</desc>
			<v:textBlock v:margins="rect(0,0,0,0)"/>
			<v:textRect cx="4.5" cy="129.922" width="9" height="24.75"/>
			<rect x="0" y="117.547" width="9" height="24.75" class="st6"/>
			<text x="0.75" y="124.3" class="st7" v:langID="1028"><v:paragraph v:spLine="-1" v:horizAlign="1"/><v:tabList/>不<tspan
						x="0.75" dy="1em" class="st8">偷</tspan><tspan x="0.75" dy="1em" class="st8">盜</tspan></text>		</g>
		<g id="shape62-64" v:mID="62" v:groupContext="shape" transform="translate(35.4255,-83.25)">
			<title>工作表.62</title>
			<desc>不邪淫</desc>
			<v:textBlock v:margins="rect(0,0,0,0)"/>
			<v:textRect cx="4.5" cy="129.922" width="9" height="24.75"/>
			<rect x="0" y="117.547" width="9" height="24.75" class="st6"/>
			<text x="0.75" y="124.3" class="st7" v:langID="1028"><v:paragraph v:spLine="-1" v:horizAlign="1"/><v:tabList/>不<tspan
						x="0.75" dy="1em" class="st8">邪</tspan><tspan x="0.75" dy="1em" class="st8">淫</tspan></text>		</g>
		<g id="shape63-69" v:mID="63" v:groupContext="shape" transform="translate(14.266,-83.4415)">
			<title>工作表.63</title>
			<desc>不妄語</desc>
			<v:textBlock v:margins="rect(0,0,0,0)"/>
			<v:textRect cx="4.5" cy="129.922" width="9" height="24.75"/>
			<rect x="0" y="117.547" width="9" height="24.75" class="st6"/>
			<text x="0.75" y="124.3" class="st7" v:langID="1028"><v:paragraph v:spLine="-1" v:horizAlign="1"/><v:tabList/>不<tspan
						x="0.75" dy="1em" class="st8">妄</tspan><tspan x="0.75" dy="1em" class="st8">語</tspan></text>		</g>
		<g id="shape64-74" v:mID="64" v:groupContext="shape" transform="translate(0.382979,-83.2739)">
			<title>工作表.64</title>
			<desc>不飲酒</desc>
			<v:textBlock v:margins="rect(0,0,0,0)"/>
			<v:textRect cx="4.5" cy="129.922" width="9" height="24.75"/>
			<rect x="0" y="117.547" width="9" height="24.75" class="st6"/>
			<text x="0.75" y="124.3" class="st7" v:langID="1028"><v:paragraph v:spLine="-1" v:horizAlign="1"/><v:tabList/>不<tspan
						x="0.75" dy="1em" class="st8">飲</tspan><tspan x="0.75" dy="1em" class="st8">酒</tspan></text>		</g>
		<g id="shape65-79" v:mID="65" v:groupContext="shape" transform="translate(0.191489,0.359043)">
			<title>工作表.65</title>
			<desc>離邪見</desc>
			<v:textBlock v:margins="rect(0,0,0,0)"/>
			<v:textRect cx="4.5" cy="129.922" width="9" height="24.75"/>
			<rect x="0" y="117.547" width="9" height="24.75" class="st6"/>
			<text x="0.75" y="124.3" class="st7" v:langID="1028"><v:paragraph v:spLine="-1" v:horizAlign="1"/><v:tabList/>離<tspan
						x="0.75" dy="1em" class="st8">邪</tspan><tspan x="0.75" dy="1em" class="st8">見</tspan></text>		</g>
		<g id="shape66-84" v:mID="66" v:groupContext="shape" transform="translate(63,0.382979)">
			<title>工作表.66</title>
			<desc>離貪欲</desc>
			<v:textBlock v:margins="rect(0,0,0,0)"/>
			<v:textRect cx="4.5" cy="129.922" width="9" height="24.75"/>
			<rect x="0" y="117.547" width="9" height="24.75" class="st6"/>
			<text x="0.75" y="124.3" class="st7" v:langID="1028"><v:paragraph v:spLine="-1" v:horizAlign="1"/><v:tabList/>離<tspan
						x="0.75" dy="1em" class="st8">貪</tspan><tspan x="0.75" dy="1em" class="st8">欲</tspan></text>		</g>
		<g id="shape69-89" v:mID="69" v:groupContext="shape" transform="translate(35.0426,0.574468)">
			<title>工作表.69</title>
			<desc>離瞋恚</desc>
			<v:textBlock v:margins="rect(0,0,0,0)"/>
			<v:textRect cx="4.5" cy="129.922" width="9" height="24.75"/>
			<rect x="0" y="117.547" width="9" height="24.75" class="st6"/>
			<text x="0.75" y="124.3" class="st7" v:langID="1028"><v:paragraph v:spLine="-1" v:horizAlign="1"/><v:tabList/>離<tspan
						x="0.75" dy="1em" class="st8">瞋</tspan><tspan x="0.75" dy="1em" class="st8">恚</tspan></text>		</g>
		<g id="shape71-94" v:mID="71" v:groupContext="shape" transform="translate(20.8245,-82.1011)">
			<title>工作表.71</title>
			<desc>︵四語業︶</desc>
			<v:textBlock v:margins="rect(0,0,0,0)"/>
			<v:textRect cx="5.625" cy="128.797" width="11.25" height="27"/>
			<rect x="0" y="115.297" width="11.25" height="27" class="st6"/>
			<text x="2.62" y="118.3" class="st9" v:langID="1028"><v:paragraph v:spLine="-1" v:horizAlign="1"/><v:tabList/>︵<tspan
						x="2.62" dy="1em" class="st8">四</tspan><tspan x="2.62" dy="1em" class="st8">語</tspan><tspan x="2.62"
						dy="1em" class="st8">業</tspan><tspan x="2.62" dy="1em" class="st8">︶</tspan></text>		</g>
	</g>
</svg>
